<svg width="25" height="25" viewBox="0 0 25 25" fill="none" xmlns="http://www.w3.org/2000/svg">
<path d="M21.68 8.79995C20.3 7.65495 18.295 7.65495 17.295 7.73995V6.76995C17.2956 6.68853 17.2802 6.60778 17.2497 6.5323C17.2191 6.45683 17.174 6.38811 17.1169 6.33007C17.0598 6.27204 16.9918 6.22582 16.9168 6.19405C16.8419 6.16229 16.7614 6.14561 16.68 6.14495L8.91996 6.07495C8.7542 6.07495 8.59523 6.1408 8.47802 6.25801C8.36081 6.37522 8.29496 6.53419 8.29496 6.69995C8.29496 6.86571 8.36081 7.02468 8.47802 7.14189C8.59523 7.2591 8.7542 7.32495 8.91996 7.32495L16.055 7.38995V12.17H4.15496C3.9892 12.17 3.83023 12.2358 3.71302 12.353C3.59581 12.4702 3.52996 12.6292 3.52996 12.795C3.52996 12.9607 3.59581 13.1197 3.71302 13.2369C3.83023 13.3541 3.9892 13.42 4.15496 13.42H16.655C16.8207 13.42 16.9797 13.3541 17.0969 13.2369C17.2141 13.1197 17.28 12.9607 17.28 12.795V8.99995C17.6123 8.96794 17.9462 8.95625 18.28 8.96495V12.465C18.28 12.6307 18.3458 12.7897 18.463 12.9069C18.5802 13.0241 18.7392 13.09 18.905 13.09H21.81V15.69H21.69C21.5532 15.1396 21.2362 14.6509 20.7895 14.3017C20.3428 13.9524 19.792 13.7626 19.225 13.7626C18.6579 13.7626 18.1072 13.9524 17.6604 14.3017C17.2137 14.6509 16.8967 15.1396 16.76 15.69H9.82996C9.69318 15.1396 9.37619 14.6509 8.92947 14.3017C8.48276 13.9524 7.93201 13.7626 7.36496 13.7626C6.79791 13.7626 6.24716 13.9524 5.80045 14.3017C5.35373 14.6509 5.03674 15.1396 4.89996 15.69H3.83496C3.6692 15.69 3.51023 15.7558 3.39302 15.873C3.27581 15.9902 3.20996 16.1492 3.20996 16.315C3.20996 16.4807 3.27581 16.6397 3.39302 16.7569C3.51023 16.8741 3.6692 16.94 3.83496 16.94H4.89996C5.03674 17.4903 5.35373 17.979 5.80045 18.3282C6.24716 18.6775 6.79791 18.8673 7.36496 18.8673C7.93201 18.8673 8.48276 18.6775 8.92947 18.3282C9.37619 17.979 9.69318 17.4903 9.82996 16.94H16.775C16.9117 17.4903 17.2287 17.979 17.6754 18.3282C18.1222 18.6775 18.6729 18.8673 19.24 18.8673C19.807 18.8673 20.3578 18.6775 20.8045 18.3282C21.2512 17.979 21.5682 17.4903 21.705 16.94H22.45C22.6157 16.94 22.7747 16.8741 22.8919 16.7569C23.0091 16.6397 23.075 16.4807 23.075 16.315V12.14C23.112 11.5138 23.0056 10.8874 22.7639 10.3086C22.5221 9.72973 22.1514 9.21375 21.68 8.79995ZM19.545 11.85V9.12495C20.0334 9.23679 20.491 9.45535 20.885 9.76495C21.1785 10.0271 21.4131 10.3484 21.5734 10.7078C21.7337 11.0672 21.816 11.4564 21.815 11.85H19.545ZM7.36496 17.625C7.10784 17.625 6.8565 17.5487 6.64272 17.4059C6.42894 17.263 6.26231 17.06 6.16392 16.8224C6.06552 16.5849 6.03978 16.3235 6.08994 16.0713C6.1401 15.8192 6.26391 15.5875 6.44572 15.4057C6.62753 15.2239 6.85917 15.1001 7.11134 15.0499C7.36352 14.9998 7.62491 15.0255 7.86245 15.1239C8.09999 15.2223 8.30303 15.3889 8.44587 15.6027C8.58872 15.8165 8.66496 16.0678 8.66496 16.325C8.66496 16.4957 8.63134 16.6647 8.566 16.8224C8.50067 16.9802 8.40492 17.1235 8.2842 17.2442C8.16348 17.3649 8.02017 17.4607 7.86245 17.526C7.70473 17.5913 7.53568 17.625 7.36496 17.625ZM19.24 17.625C18.9828 17.625 18.7315 17.5487 18.5177 17.4059C18.3039 17.263 18.1373 17.06 18.0389 16.8224C17.9405 16.5849 17.9148 16.3235 17.9649 16.0713C18.0151 15.8192 18.1389 15.5875 18.3207 15.4057C18.5025 15.2239 18.7342 15.1001 18.9863 15.0499C19.2385 14.9998 19.4999 15.0255 19.7374 15.1239C19.975 15.2223 20.178 15.3889 20.3209 15.6027C20.4637 15.8165 20.54 16.0678 20.54 16.325C20.5406 16.4959 20.5075 16.6652 20.4424 16.8232C20.3773 16.9812 20.2815 17.1248 20.1607 17.2457C20.0398 17.3665 19.8963 17.4622 19.7382 17.5273C19.5802 17.5924 19.4109 17.6256 19.24 17.625Z" fill="#0067B2"/>
<path d="M4.80005 9.40991H12.18C12.3458 9.40991 12.5048 9.34406 12.622 9.22685C12.7392 9.10964 12.805 8.95067 12.805 8.78491C12.805 8.61915 12.7392 8.46018 12.622 8.34297C12.5048 8.22576 12.3458 8.15991 12.18 8.15991H4.80005C4.63429 8.15991 4.47532 8.22576 4.35811 8.34297C4.2409 8.46018 4.17505 8.61915 4.17505 8.78491C4.17505 8.95067 4.2409 9.10964 4.35811 9.22685C4.47532 9.34406 4.63429 9.40991 4.80005 9.40991Z" fill="#0067B2"/>
<path d="M12.805 10.71C12.805 10.5442 12.7392 10.3852 12.622 10.268C12.5048 10.1508 12.3458 10.085 12.18 10.085H2.55005C2.38429 10.085 2.22532 10.1508 2.10811 10.268C1.9909 10.3852 1.92505 10.5442 1.92505 10.71C1.92505 10.8757 1.9909 11.0347 2.10811 11.1519C2.22532 11.2691 2.38429 11.335 2.55005 11.335H12.18C12.3458 11.335 12.5048 11.2691 12.622 11.1519C12.7392 11.0347 12.805 10.8757 12.805 10.71Z" fill="#0067B2"/>
</svg>
