<svg width="25" height="25" viewBox="0 0 25 25" fill="none" xmlns="http://www.w3.org/2000/svg">
<path d="M23.04 4.32999C23.0251 4.22258 22.9892 4.11915 22.9343 4.02564C22.8794 3.93212 22.8066 3.85035 22.72 3.78499L20.78 2.28499C20.6062 2.15187 20.3877 2.09098 20.17 2.11499C19.9725 2.14078 19.7929 2.24312 19.67 2.39999L16.755 6.18999H5.68503C5.46859 6.18934 5.25414 6.2314 5.05398 6.31378C4.85383 6.39615 4.67189 6.51722 4.51861 6.67003C4.36533 6.82285 4.24371 7.00442 4.16073 7.20432C4.07775 7.40423 4.03503 7.61855 4.03503 7.83499V21.335C4.03503 21.7726 4.20887 22.1923 4.51831 22.5017C4.82774 22.8112 5.24743 22.985 5.68503 22.985H18.035C18.2515 22.985 18.4658 22.9423 18.6657 22.8593C18.8656 22.7763 19.0472 22.6547 19.2 22.5014C19.3528 22.3481 19.4739 22.1662 19.5563 21.966C19.6386 21.7659 19.6807 21.5514 19.68 21.335V9.06L22.895 4.88499C23.0145 4.72628 23.0666 4.52687 23.04 4.32999ZM18.43 21.33C18.4307 21.3823 18.421 21.4342 18.4014 21.4827C18.3819 21.5312 18.3529 21.5753 18.3161 21.6125C18.2794 21.6498 18.2356 21.6793 18.1874 21.6995C18.1391 21.7196 18.0873 21.73 18.035 21.73H5.68503C5.57895 21.73 5.47721 21.6879 5.40219 21.6128C5.32718 21.5378 5.28503 21.4361 5.28503 21.33V7.82999C5.28503 7.7777 5.29541 7.72592 5.31557 7.67767C5.33574 7.62942 5.36528 7.58565 5.40249 7.5489C5.4397 7.51216 5.48384 7.48317 5.53234 7.46361C5.58084 7.44406 5.63274 7.43433 5.68503 7.43499H15.8L13.355 10.615L13.235 10.66L12.27 14.11C12.236 14.2372 12.2396 14.3715 12.2805 14.4966C12.3213 14.6218 12.3976 14.7324 12.5 14.815C12.6197 14.9133 12.7702 14.9664 12.925 14.965C13.0305 14.9638 13.1346 14.94 13.23 14.895L16.23 13.37C16.2637 13.3495 16.2955 13.3261 16.325 13.3H16.355L16.385 13.27C16.4493 13.2313 16.5067 13.1823 16.555 13.125L18.415 10.7L18.43 21.33ZM14.11 12.185L14.79 12.685L13.83 13.185L14.11 12.185ZM15.915 11.91L14.66 11L20.37 3.54999L21.61 4.49999L15.915 11.91Z" fill="#0067B2"/>
<path d="M6.78503 11.24H10.94C11.1058 11.24 11.2648 11.1741 11.382 11.0569C11.4992 10.9397 11.565 10.7808 11.565 10.615C11.565 10.4492 11.4992 10.2903 11.382 10.173C11.2648 10.0558 11.1058 9.98999 10.94 9.98999H6.78503C6.61927 9.98999 6.4603 10.0558 6.34309 10.173C6.22588 10.2903 6.16003 10.4492 6.16003 10.615C6.16003 10.7808 6.22588 10.9397 6.34309 11.0569C6.4603 11.1741 6.61927 11.24 6.78503 11.24Z" fill="#0067B2"/>
<path d="M6.78503 14.245H10.94C11.1058 14.245 11.2648 14.1791 11.382 14.0619C11.4992 13.9447 11.565 13.7858 11.565 13.62C11.565 13.4542 11.4992 13.2953 11.382 13.1781C11.2648 13.0608 11.1058 12.995 10.94 12.995H6.78503C6.61927 12.995 6.4603 13.0608 6.34309 13.1781C6.22588 13.2953 6.16003 13.4542 6.16003 13.62C6.16003 13.7858 6.22588 13.9447 6.34309 14.0619C6.4603 14.1791 6.61927 14.245 6.78503 14.245Z" fill="#0067B2"/>
<path d="M6 16.625C6 16.7908 6.06585 16.9497 6.18306 17.0669C6.30027 17.1842 6.45924 17.25 6.625 17.25H17.125C17.2908 17.25 17.4497 17.1842 17.5669 17.0669C17.6842 16.9497 17.75 16.7908 17.75 16.625C17.75 16.4592 17.6842 16.3003 17.5669 16.1831C17.4497 16.0658 17.2908 16 17.125 16H6.625C6.45924 16 6.30027 16.0658 6.18306 16.1831C6.06585 16.3003 6 16.4592 6 16.625Z" fill="#0067B2"/>
<path d="M17.105 19H6.60498C6.5229 19 6.44163 19.0162 6.3658 19.0476C6.28997 19.079 6.22108 19.125 6.16304 19.1831C6.105 19.2411 6.05897 19.31 6.02756 19.3858C5.99615 19.4617 5.97998 19.5429 5.97998 19.625C5.97998 19.7071 5.99615 19.7883 6.02756 19.8642C6.05897 19.94 6.105 20.0089 6.16304 20.0669C6.22108 20.125 6.28997 20.171 6.3658 20.2024C6.44163 20.2338 6.5229 20.25 6.60498 20.25H17.105C17.2707 20.25 17.4297 20.1842 17.5469 20.0669C17.6641 19.9497 17.73 19.7908 17.73 19.625C17.73 19.4592 17.6641 19.3003 17.5469 19.1831C17.4297 19.0658 17.2707 19 17.105 19Z" fill="#0067B2"/>
</svg>
