<svg width="22" height="22" viewBox="0 0 22 22" fill="none" xmlns="http://www.w3.org/2000/svg">
<path fill-rule="evenodd" clip-rule="evenodd" d="M13.4723 0.465007C11.9324 0.460094 10.4238 0.899707 9.12763 1.73107C7.83146 2.56244 6.80276 3.75023 6.16503 5.15186C5.52731 6.55348 5.30765 8.10938 5.53244 9.63277C5.75722 11.1562 6.4169 12.5823 7.43227 13.74L0.697266 20.5L1.69727 21.5L8.46227 14.735C9.46177 15.527 10.6362 16.0686 11.8875 16.3147C13.1388 16.5607 14.4308 16.504 15.6558 16.1493C16.8807 15.7946 18.0032 15.1522 18.9294 14.2757C19.8557 13.3992 20.5591 12.3139 20.9808 11.1103C21.4025 9.9068 21.5303 8.61989 21.3537 7.3569C21.1771 6.09391 20.701 4.89145 19.9653 3.84978C19.2296 2.80811 18.2556 1.95742 17.1243 1.36863C15.9931 0.779841 14.7375 0.470023 13.4623 0.465007H13.4723ZM13.4723 15.285C12.1253 15.286 10.8083 14.8872 9.68818 14.1392C8.56801 13.3912 7.69504 12.3275 7.17981 11.083C6.66458 9.83846 6.53028 8.46902 6.79391 7.14811C7.05754 5.8272 7.70725 4.61423 8.66075 3.66284C9.61425 2.71144 10.8286 2.06441 12.1501 1.8037C13.4716 1.54298 14.8408 1.68031 16.0842 2.19829C17.3275 2.71626 18.3893 3.59158 19.1348 4.7134C19.8804 5.83521 20.2762 7.15305 20.2723 8.50001C20.2657 10.3001 19.5466 12.0243 18.2724 13.2957C16.9981 14.5672 15.2723 15.2824 13.4723 15.285Z" fill="#05054B"/>
</svg>
