<svg width="29" height="28" viewBox="0 0 29 28" fill="none" xmlns="http://www.w3.org/2000/svg">
<path fill-rule="evenodd" clip-rule="evenodd" d="M14.5464 0.0937896C11.8038 0.0872376 9.12085 0.89454 6.83723 2.41351C4.55362 3.93247 2.77199 6.09481 1.71788 8.62681C0.663774 11.1588 0.384572 13.9466 0.915618 16.6374C1.44666 19.3281 2.76408 21.8008 4.70111 23.7425C6.63814 25.6842 9.10769 27.0075 11.7972 27.545C14.4866 28.0825 17.2751 27.8099 19.8096 26.7619C22.3441 25.7138 24.5107 23.9374 26.0352 21.6574C27.5596 19.3774 28.3733 16.6964 28.3733 13.9538C28.3612 10.2874 26.9015 6.77408 24.3121 4.1784C21.7226 1.58273 18.2128 0.114721 14.5464 0.0937896ZM14.5464 26.1583C12.1312 26.1648 9.76836 25.4546 7.75699 24.1176C5.74562 22.7805 4.17619 20.8767 3.24739 18.6472C2.31858 16.4177 2.07216 13.9628 2.53933 11.5932C3.00649 9.22356 4.16624 7.04583 5.87174 5.33569C7.57724 3.62555 9.75181 2.45989 12.1201 1.98629C14.4885 1.51269 16.9441 1.75244 19.1761 2.67518C21.4081 3.59793 23.3161 5.16218 24.6587 7.16991C26.0012 9.17764 26.7178 11.5386 26.7178 13.9538C26.7143 17.1838 25.4319 20.281 23.151 22.5681C20.8702 24.8552 17.7764 26.146 14.5464 26.1583Z" fill="#171449"/>
<path fill-rule="evenodd" clip-rule="evenodd" d="M12.487 8.3042L11.134 9.6506L15.4966 14.0132L11.134 18.3758L12.487 19.7288L18.1894 14.0264L18.1828 14.0132L18.1894 14.0066L12.487 8.3042Z" fill="#171449"/>
</svg>
